<?xml version="1.0" encoding="UTF-8"?>
<!-- Generated by Pixelmator Pro 3.7 -->
<svg width="503" height="503" viewBox="0 0 503 503" xmlns="http://www.w3.org/2000/svg">
    <path id="Shape" fill="#4a240e" fill-rule="evenodd" stroke="none" d="M 316.750061 790.285278 C 205.23761 790.403442 84.637604 790.403687 48.750061 790.286011 C -5.739014 790.1073 -17.571976 789.819946 -23 788.543701 C -26.574997 787.703125 -32.875 785.331055 -37 783.272522 C -42.330582 780.612366 -46.679855 777.356018 -52.036087 772.014893 C -57.843414 766.223877 -60.525543 762.550171 -63.72821 756 C -66.014038 751.325012 -68.472794 744.575012 -69.192123 741 C -69.911453 737.424988 -70.481369 731.349976 -70.458618 727.5 C -70.435852 723.650024 -69.65181 717.349976 -68.716293 713.5 C -67.780777 709.650024 -65.42691 703.349976 -63.485489 699.5 C -61.544052 695.650024 -57.698898 689.935913 -54.940674 686.802124 C -52.182465 683.668274 -46.864929 679.069397 -43.123932 676.582397 C -39.382919 674.095337 -32.537125 670.809448 -27.911057 669.280273 C -19.5 666.5 -19.5 666.5 249.513611 666.5 C 504.202576 666.5 518.922974 666.594971 525.959167 668.283569 C 530.046692 669.264587 536.154968 671.427856 539.533081 673.090881 C 542.911194 674.753906 548.222778 678.226318 551.336548 680.807312 C 554.450317 683.388306 558.794495 687.902466 560.990295 690.838867 C 563.186096 693.775269 566.401855 699.151306 568.136353 702.785645 C 570.111938 706.92511 571.86554 712.915161 572.830566 718.820496 C 574.091553 726.536438 574.163391 729.672791 573.226501 736.10083 C 572.596985 740.420227 570.87384 747.002075 569.397339 750.727112 C 567.920837 754.452209 565.158264 759.863098 563.258301 762.751343 C 561.358337 765.639526 556.839905 770.718506 553.217346 774.037903 C 549.563965 777.38562 543.484558 781.616028 539.56543 783.537842 C 535.679443 785.443359 529.575012 787.69281 526 788.53656 C 520.286194 789.885071 494.976624 790.096619 316.750061 790.285278 Z M 584.700806 629.914917 C 581.290344 629.868164 576.25 629.282715 573.5 628.614014 C 570.75 627.945251 566.132629 626.109375 563.239197 624.53418 C 560.345703 622.959106 555.720459 619.282959 552.960876 616.365112 C 550.201233 613.447205 546.639404 608.302551 545.045593 604.932495 C 543.451843 601.5625 541.605164 595.587891 540.941895 591.655579 C 540.245789 587.528564 539.978638 580.911194 540.309998 576.002991 C 540.625732 571.326355 541.749878 565.017212 542.808167 561.982666 C 543.866394 558.94812 546.178406 554.114868 547.946045 551.242188 C 549.713623 548.369446 552.91687 544.515076 555.064331 542.67688 C 557.211792 540.838745 561.325256 538.052307 564.205261 536.484741 C 567.085327 534.917236 571.929871 533.04895 574.970886 532.333008 C 578.011902 531.617065 582.992981 531.02417 586.039917 531.015625 C 589.086853 531.007019 594.156921 531.671265 597.306702 532.491699 C 600.456482 533.312073 605.348328 535.15625 608.177429 536.589905 C 611.00647 538.023499 615.514832 541.448547 618.195923 544.201111 C 620.876953 546.953674 624.247437 551.521973 625.685791 554.352905 C 627.124207 557.183838 628.902344 561.75 629.637268 564.5 C 630.372253 567.25 631.245972 572.875 631.578979 577 C 632.001953 582.24054 631.681091 586.890198 630.513733 592.43396 C 629.59491 596.797607 627.485413 603.057434 625.825989 606.344727 C 624.166565 609.631958 620.48938 614.639343 617.654419 617.472168 C 614.819519 620.305054 610.025024 623.781128 607 625.196838 C 603.974976 626.612549 599.115356 628.2724 596.200806 628.885376 C 593.286194 629.498413 588.111206 629.961731 584.700806 629.914917 Z M -93.477493 533.5 C -67.996155 532.940186 -67.996155 532.940186 -66.496918 536.220093 C -65.672348 538.024048 -62.069778 547.936279 -58.491196 558.247375 C -54.912628 568.558411 -48.535828 586.783447 -44.320526 598.747375 C -40.10524 610.711304 -36.4534 622.014282 -36.205338 623.865051 C -35.91333 626.043701 -36.238342 627.536743 -37.127167 628.099731 C -37.882217 628.578003 -42.367752 628.976257 -47.095016 628.98468 C -54.039536 628.99707 -55.986145 628.66394 -57.232101 627.25 C -58.080246 626.287476 -59.816788 622.227478 -61.09108 618.227783 C -63.40799 610.955505 -63.40799 610.955505 -80.871567 611.227783 C -98.335159 611.5 -98.335159 611.5 -100.782608 619 C -102.128708 623.125 -103.939316 627.0625 -104.806168 627.75 C -105.776855 628.519897 -109.526794 629 -114.56868 629 C -120.60321 629 -123.080353 628.608154 -123.992401 627.509155 C -124.672913 626.689209 -125.031982 624.776733 -124.790359 623.259155 C -124.548721 621.741577 -119.488556 606.775024 -113.545532 590 C -107.602509 573.224976 -100.655975 553.650024 -98.108765 546.5 L -93.477493 533.5 Z M 10.008881 629 C -8.575806 629 -15.929138 628.670898 -16.800003 627.799988 C -17.698242 626.901733 -18 615.133301 -18 581 C -18 546.866699 -17.698242 535.098267 -16.800003 534.200012 C -16.064194 533.464233 -12.46666 533 -7.5 533 C -2.533325 533 1.064209 533.464233 1.799988 534.200012 C 2.689728 535.089722 3 544.885193 3 572.083374 C 3 608.766724 3 608.766724 5.197113 609.341309 C 6.405548 609.657349 13.070251 609.644348 20.007599 609.3125 C 29.772064 608.845459 33.284882 609.026611 35.560486 610.11438 C 38.377655 611.461121 38.512421 611.830444 38.798401 618.987793 C 39.0448 625.154297 38.79361 626.677734 37.357269 627.728027 C 36.056824 628.678955 29.153625 629 10.008881 629 Z M 62 552 C 41.466675 552 37.003265 551.603271 36.200012 550.799988 C 35.492004 550.092041 35 546.688904 35 542.5 C 35 538.311096 35.492004 534.907959 36.200012 534.200012 C 37.088379 533.311646 46.64444 533 73 533 C 99.35556 533 108.911621 533.311646 109.799988 534.200012 C 110.507996 534.907959 111 538.311096 111 542.5 C 111 546.688904 110.507996 550.092041 109.799988 550.799988 C 108.996735 551.603271 104.533325 552 96.299988 552 L 84 552 L 84 589.299988 C 84 616.977783 83.69043 626.909546 82.799988 627.799988 C 82.06311 628.536865 78.456665 629 73.454987 629 C 66.834229 629 65.000275 628.657776 63.654999 627.171265 C 62.178345 625.539551 62 621.39093 62 588.671265 L 62 552 Z M 139.356689 629 C 131.971924 629 130.951294 628.768555 129.556702 626.777466 C 128.204773 624.84729 128 618.740356 128 580.348877 C 128 541.494934 128.190247 535.952637 129.571442 534.571411 C 130.745361 533.397461 133.224243 533 139.371429 533 C 144.43811 533 148.061096 533.461121 148.799988 534.200012 C 149.698242 535.098267 150 546.866699 150 581 C 150 615.133301 149.698242 626.901733 148.799988 627.799988 C 148.06076 628.539246 144.434814 629 139.356689 629 Z M 197 599.274536 C 197 625.749512 196.83493 627.017944 195.065735 627.964844 C 194.001892 628.53418 189.591888 629 185.265747 629 C 180.481262 629 176.929932 628.529907 176.200012 627.799988 C 175.301697 626.901733 175 615.116089 175 580.922485 C 175 541.990662 175.216705 535.065063 176.467438 534.027039 C 177.558838 533.121216 183.773041 532.912842 200.717438 533.213745 C 221.342346 533.580078 224.034607 533.828979 229.144836 535.841675 C 232.249481 537.064514 236.589294 539.368652 238.788849 540.962036 C 241.4104 542.861023 243.724915 545.839355 245.50766 549.607788 C 247.655548 554.14801 248.25589 556.952759 248.363617 562.950134 C 248.451874 567.864746 247.855408 572.59375 246.672913 576.35437 C 245.583893 579.817688 243.36438 583.804688 241.178467 586.224243 C 239.161438 588.456787 235.933624 591.270874 234.005554 592.477661 C 232.077515 593.684387 228.25 595.462158 225.5 596.428223 C 222.378143 597.525024 216.086395 598.389465 208.75 598.729675 L 197 599.274536 Z M 294.871399 629 C 272.815125 629 268.918579 628.775696 267.571411 627.428589 C 266.189209 626.046326 266 620.412109 266 580.62854 C 266 546.784119 266.302063 535.097961 267.200012 534.200012 C 267.938904 533.461121 271.56189 533 276.628601 533 C 282.775757 533 285.254639 533.397461 286.428589 534.571411 C 287.799622 535.942505 288 540.787842 288 572.571411 C 288 606.598999 288.115356 608.999939 289.75 608.999084 C 290.712524 608.998535 297.996582 609.238281 305.936768 609.531616 C 314.063416 609.83197 320.947571 610.541504 321.686768 611.155029 C 322.547852 611.869629 323 614.716064 323 619.422485 C 323 623.671631 322.510437 627.0896 321.799988 627.799988 C 320.928833 628.671143 313.549194 629 294.871399 629 Z M 345.467468 629 C 339.40094 629 336.920471 628.609131 336.007629 627.509155 C 335.327087 626.689209 334.982971 624.776733 335.24292 623.259155 C 335.502869 621.741577 338.241333 613.407837 341.328369 604.739746 C 344.415405 596.071533 351.067261 577.17157 356.110352 562.739746 C 361.153442 548.307861 365.961426 535.712524 366.794739 534.75 C 368.07135 533.275635 370.093018 533 379.631958 533 C 390.269958 533 391.042908 533.135925 392.427429 535.25 C 393.237854 536.487488 397.527039 547.961182 401.958923 560.74707 C 406.390869 573.532898 413.242004 593.270081 417.183777 604.607422 C 422.629456 620.270508 424.102966 625.614502 423.31958 626.860352 C 422.516785 628.137207 420.33606 628.564514 413.463684 628.791565 C 406.041443 629.036804 404.365234 628.79834 402.918274 627.291565 C 401.972046 626.306213 400.16156 622.227478 398.894897 618.227783 C 396.59198 610.955505 396.59198 610.955505 379.137756 611.227783 C 361.683472 611.5 361.683472 611.5 359.354431 618.407288 C 358.073425 622.206299 356.274841 626.143799 355.357666 627.157288 C 353.995056 628.662964 352.186096 629 345.467468 629 Z M 462.5 569.577759 C 462.057129 616.852417 461.598572 626.778748 460.861694 627.666626 C 460.104614 628.578857 457.172302 629 451.577576 629 C 446.550598 629 442.937683 628.53772 442.200012 627.799988 C 441.301758 626.901733 441 615.133301 441 581 C 441 546.866699 441.301758 535.098267 442.200012 534.200012 C 442.949646 533.450317 446.669128 533 452.111084 533 C 460.528503 533 460.905823 533.099365 463.30304 535.948303 C 464.66748 537.569824 472.870422 550.282349 481.531738 564.198303 C 490.193115 578.114258 497.891724 590.158936 498.639832 590.964294 C 499.789185 592.201599 500 588.008545 500 563.914307 C 500 543.069824 500.322754 535.077209 501.200012 534.200012 C 501.937683 533.46228 505.550598 533 510.577576 533 C 516.604065 533 519.080566 533.392151 519.99231 534.490784 C 520.930176 535.620789 521.262268 546.836121 521.364807 580.836914 C 521.475403 617.535095 521.250427 625.993042 520.127563 627.34613 C 519.039429 628.657349 516.915894 629 509.877563 629 C 502.612854 629 500.66803 628.667969 499.172607 627.172607 C 498.167542 626.167542 489.505005 612.797546 479.922607 597.461487 L 462.5 569.577759 Z M 587.18158 611.541809 C 589.75647 611.304565 593.63739 610.205322 595.805847 609.09906 C 597.974243 607.992798 600.847046 605.782104 602.189758 604.186279 C 603.532532 602.590576 605.653564 598.908203 606.903198 596.003357 C 608.204712 592.977905 609.404236 587.684326 609.711365 583.610901 C 610.08197 578.694153 609.734436 574.494385 608.584961 570 C 607.670593 566.424988 605.811096 561.816345 604.452698 559.758545 C 603.094299 557.700745 600.124023 554.786865 597.85199 553.283325 C 594.635376 551.154663 592.257813 550.471802 587.110535 550.197937 C 581.617126 549.90564 579.739563 550.252319 576 552.249268 C 573.525024 553.570923 570.041382 556.560425 568.258606 558.892578 C 566.475891 561.224731 564.28656 565.64624 563.393555 568.71814 C 562.240784 572.683655 561.898193 576.796997 562.212402 582.901733 C 562.517334 588.826172 563.349731 593.088257 564.889282 596.607422 C 566.118164 599.416504 568.788269 603.340332 570.822876 605.327026 C 572.857422 607.313721 576.317139 609.621887 578.511047 610.456177 C 580.888916 611.360474 584.390808 611.79895 587.18158 611.541809 Z M -91.763931 592 C -69.870422 592 -69.787796 591.982178 -70.36499 589.75 C -70.684967 588.512512 -73.040848 580.974976 -75.60025 573 C -80.201111 558.66394 -80.269287 558.533936 -81.62944 561.5 C -82.386078 563.150024 -84.975876 570.6875 -87.384537 578.25 L -91.763931 592 Z M 379.49176 592 C 390.216797 592 390.216797 592 389.630798 589.665161 C 389.308533 588.381042 386.956421 580.844666 384.403931 572.917725 C 379.763062 558.505127 379.763062 558.505127 377.999084 563.002563 C 377.028931 565.476135 374.769348 572.224976 372.977783 578 C 371.186218 583.775024 369.505859 589.287476 369.243591 590.25 C 368.811035 591.837524 369.762451 592 379.49176 592 Z M 197 550.732605 L 197 580.232605 L 206.75 579.810181 C 213.334351 579.524963 217.549713 578.832336 219.733063 577.677002 C 221.511261 576.736023 223.648773 574.646118 224.483063 573.032715 C 225.317383 571.419312 226 568.029663 226 565.5 C 226 562.970337 225.317383 559.580688 224.483063 557.967285 C 223.648773 556.353882 221.511261 554.279175 219.733063 553.356812 C 217.623291 552.262451 213.112457 551.515259 206.75 551.206177 L 197 550.732605 Z M 257 496.476501 C 245.725006 496.698883 232.899994 496.475677 228.5 495.980469 C 224.100006 495.48526 216.36734 494.382477 211.316284 493.529846 C 206.265259 492.677216 196.815247 490.644897 190.316284 489.01358 C 183.817322 487.382294 173.870331 484.406799 168.211823 482.401398 C 162.553345 480.395996 150.853333 475.27887 142.211823 471.029999 C 133.570313 466.781097 121.100006 459.679108 114.5 455.247772 C 107.899994 450.816437 98.225006 443.609894 93 439.233215 C 87.774994 434.856567 79.192444 426.785522 73.927673 421.297546 C 68.662872 415.80957 60.283661 405.910583 55.30722 399.299805 C 50.33075 392.689026 43.743835 383.054626 40.669647 377.890076 C 37.595459 372.725525 32.169037 362.424988 28.610962 355 C 25.052887 347.575012 20.124573 335.424988 17.65918 328 C 15.193787 320.575012 12.028625 309.325012 10.625488 303 C 9.222351 296.674988 7.382599 286.189453 6.53717 279.698792 C 5.656525 272.937866 5 260.335754 5 250.192627 C 5 240.454956 5.667938 226.777771 6.484283 219.79895 C 7.300659 212.820129 8.919373 202.721741 10.081451 197.358093 C 11.2435 191.994446 13.532288 183.082214 15.167633 177.55304 C 16.802979 172.023865 20.21283 162.549988 22.745087 156.5 C 25.277374 150.450012 29.361511 141.674988 31.820953 137 C 34.280396 132.325012 39.519012 123.549988 43.462341 117.5 C 47.40564 111.450012 53.688019 102.674988 57.423157 98 C 61.158295 93.325012 68.553589 85.076416 73.857147 79.669861 C 79.160706 74.263245 88 66.191345 93.5 61.7323 C 99 57.273254 108.899994 50.070068 115.5 45.725159 C 122.100006 41.38031 132.970184 35.150269 139.655975 31.880676 C 146.341736 28.611023 156.466736 24.182678 162.155975 22.039917 C 167.845184 19.897156 177.450012 16.778381 183.5 15.109314 C 189.549988 13.440247 199.674988 11.162537 206 10.047791 C 212.325012 8.933044 222.674988 7.570129 229 7.019043 C 235.325012 6.467957 245 6.014771 250.5 6.011963 C 256 6.009155 265.674988 6.47644 272 7.050354 C 278.325012 7.624329 287.549988 8.775452 292.5 9.608398 C 297.450012 10.441406 306.900024 12.475403 313.5 14.128418 C 320.099976 15.781433 329.549988 18.527893 334.5 20.231628 C 339.450012 21.935364 348.450012 25.513672 354.5 28.183411 C 360.549988 30.85321 370.224976 35.746338 376 39.057068 C 381.775024 42.367737 390.549988 47.971802 395.5 51.510437 C 400.450012 55.049072 409.119568 61.823059 414.765686 66.56366 C 420.411865 71.30426 429.042358 79.597412 433.94458 84.992859 C 438.846802 90.388306 445.959656 99.009644 449.750916 104.151367 C 453.542114 109.293152 459.162292 117.598145 462.240112 122.606934 C 465.317993 127.615723 469.898621 135.820374 472.419373 140.839478 C 474.940125 145.858582 478.793152 154.406372 480.981689 159.834656 C 483.170288 165.262878 486.572144 175.283264 488.541504 182.102112 C 490.510803 188.920959 493.237427 201.025024 494.600647 209 C 496.270508 218.769104 497.280029 229.436646 497.694763 241.695618 C 498.072571 252.862671 497.856689 264.857849 497.135864 272.748901 C 496.489868 279.820618 494.66803 291.882629 493.087402 299.553284 C 491.506775 307.223999 488.146851 319.799988 485.620911 327.5 C 483.09491 335.200012 478.583862 346.798706 475.596313 353.274841 C 472.608765 359.751038 467.143188 370.101013 463.450562 376.274841 C 459.757996 382.448669 454.476074 390.650024 451.713013 394.5 C 448.949951 398.350006 443.000916 405.774994 438.492981 411 C 433.984985 416.225006 425.826172 424.774994 420.362183 430 C 414.898254 435.225006 405.858948 442.992554 400.274902 447.261261 C 394.690857 451.529968 386.603027 457.205109 382.301941 459.872711 C 378.000916 462.540314 369.760925 467.123016 363.990906 470.056488 C 358.220886 472.98996 350.125 476.808594 346 478.542358 C 341.875 480.276093 334.224976 483.10437 329 484.827362 C 323.775024 486.550385 314.775024 489.063202 309 490.411407 C 303.224976 491.759613 293.775024 493.584839 288 494.467438 C 282.064514 495.374573 268.588257 496.247955 257 496.476501 Z"/>
    <path id="path1" fill="#e39923" fill-rule="evenodd" stroke="none" d="M 255.616333 479.989685 C 249.732635 480 249.732635 480 250.368591 463.25 C 250.718384 454.037506 251.275726 441.254974 251.607117 434.844421 C 252.209656 423.188812 252.209656 423.188812 260.854858 419.246887 C 265.60968 417.078827 276.953308 412.307373 286.062866 408.643677 C 295.172485 404.97998 308.44751 399.920837 315.562866 397.401184 C 322.678284 394.881531 331.14563 392.320251 334.37915 391.709473 C 340.136353 390.622009 340.306335 390.654846 342.576233 393.293701 C 343.851074 394.775879 345.658447 398.412994 346.592529 401.376282 C 347.885986 405.479645 348.161987 408.878082 347.750305 415.632019 C 347.453064 420.509399 345.521301 432.825012 343.457581 443 C 341.393799 453.174988 339.202942 462.052582 338.588928 462.727997 C 337.974976 463.403381 331.296143 465.988434 323.74707 468.472565 C 316.198059 470.956696 304.492493 474.089325 297.73468 475.43396 C 290.976929 476.778595 280.05957 478.351379 273.473938 478.929047 C 266.888245 479.506714 258.852356 479.984009 255.616333 479.989685 Z M 231.110046 462 C 230.5 478.5 230.5 478.5 226.5 478.233459 C 224.299988 478.086853 221.487488 477.740784 220.25 477.464417 C 218.022583 476.966949 218 476.788025 218 459.635925 C 218 444.379272 218.209015 442.128876 219.75 440.793762 C 220.712494 439.959869 223.572876 438.085236 226.106415 436.62793 C 230.71283 433.978271 230.71283 433.978271 231.216431 439.739136 C 231.493439 442.907623 231.445557 452.924988 231.110046 462 Z M 197.25 472.928986 C 196.287506 472.889923 192.350006 471.963043 188.5 470.869263 C 184.649994 469.775482 181.16275 468.547668 180.750519 468.140808 C 180.338318 467.733948 183.898071 464.81366 188.661072 461.651276 C 195.176605 457.325287 197.525146 456.223206 198.145233 457.200745 C 198.598511 457.915344 198.976257 461.762512 198.98468 465.75 C 198.997925 472.020691 198.763611 472.990417 197.25 472.928986 Z M 159.813568 459.951294 C 159.091125 459.9245 154.450012 457.977631 149.5 455.624939 C 144.549988 453.272247 136.24295 448.708435 131.039886 445.483124 C 125.836792 442.257813 117.286804 436.365906 112.039886 432.389984 C 106.792938 428.414093 98.559662 421.485504 93.743713 416.993134 C 88.927765 412.500763 81.347321 404.47702 76.898315 399.162598 C 72.44931 393.848145 65.226563 384.153992 60.847778 377.620056 C 56.468994 371.08606 50.374115 360.736023 47.303619 354.620056 C 44.233124 348.504028 39.957031 338.810425 37.801208 333.078674 C 35.645355 327.346985 33.626892 321.38446 33.315735 319.828674 C 32.75 317 32.75 317 43.131134 317 C 48.840759 317 59.134491 317.665344 66.006134 318.478516 C 72.877747 319.291748 84.575012 321.040039 92 322.363647 C 99.424988 323.687195 112.700012 326.396912 121.5 328.385193 C 130.299988 330.373474 146.016632 334.450684 156.425842 337.445679 C 174.925537 342.768494 175.437042 342.988037 179.142273 347.195557 C 181.227081 349.562988 184.109985 353.152649 185.548737 355.172485 C 186.987457 357.192383 189.002716 362.142395 190.0271 366.172485 C 191.051453 370.202637 192.574524 378.674988 193.411682 385 C 194.24884 391.325012 195.385681 402.688538 195.938049 410.252319 C 196.490387 417.816101 197.103455 426.462189 197.300415 429.465851 C 197.658508 434.927063 197.658508 434.927063 189.079254 440.616486 C 184.360657 443.745667 176.141113 449.387085 170.813568 453.152954 C 165.486053 456.918823 160.536041 459.978088 159.813568 459.951294 Z M 368.663269 447.849213 C 359.826538 453.066223 359.826538 453.066223 360.525085 449.885834 C 360.909241 448.136627 362.721985 441.613342 364.553345 435.389648 C 366.384705 429.165955 369.06842 418.78894 370.51709 412.32962 C 371.96582 405.87027 373.40741 397.528656 373.720581 393.792664 C 374.033813 390.056702 374.621399 387 375.026367 387 C 375.431274 387 376.965881 388.577515 378.436462 390.505615 C 379.907104 392.433655 382.420288 396.821167 384.021423 400.255585 C 385.622559 403.690002 387.598633 409.200012 388.412842 412.5 C 389.22699 415.799988 390.029663 421.832977 390.196533 425.906616 C 390.5 433.313202 390.5 433.313202 384 437.972717 C 380.424988 440.535431 373.523499 444.979858 368.663269 447.849213 Z M 223.435699 419.380066 C 218.707947 422.02243 218.707947 422.02243 219.414154 408.76123 C 219.802551 401.46756 220.458008 393.025024 220.870697 390 C 221.621033 384.5 221.621033 384.5 223.258759 388.248291 C 224.159546 390.309875 225.877808 396.921692 227.077118 402.941254 C 228.276459 408.960846 229.011536 414.527588 228.710602 415.311798 C 228.409668 416.096039 226.03595 417.926727 223.435699 419.380066 Z M 413.315002 413.450073 C 412.388245 394.888794 411.40033 386.916992 410.521729 383.759949 C 409.643127 380.602905 408.675598 377.160461 408.371704 376.110046 C 407.863525 374.35376 408.570068 374.154602 417.159546 373.632629 C 422.296814 373.320496 430.939758 372.812683 436.36615 372.504211 C 446.2323 371.943298 446.2323 371.943298 444.160156 375.22168 C 443.020447 377.024719 438.886047 382.849976 434.972595 388.166687 C 431.059082 393.483337 424.585144 401.347107 420.58606 405.641724 L 413.315002 413.450073 Z M 252.773499 403.97113 C 253.819702 378.80603 254.306519 370.9375 254.530334 370.25 C 254.803467 369.41095 257.193298 369 261.799194 369 C 265.573303 369 273.349915 368.148865 279.080566 367.108582 C 284.811279 366.068237 295.349976 363.26178 302.5 360.872009 C 309.650024 358.482178 315.99823 356.387695 316.607239 356.21759 C 317.216187 356.047546 318.291321 357.96875 318.996399 360.487061 C 319.701477 363.005371 322.038391 367.578308 324.189514 370.64917 C 326.340698 373.720093 327.965576 376.324707 327.800354 376.437256 C 327.635193 376.549805 325.25 377.143372 322.5 377.756287 C 319.75 378.369202 312.91925 380.470215 307.320618 382.425232 C 301.721985 384.380188 292.046936 387.963989 285.820618 390.389221 C 279.594299 392.814453 269.611511 396.862488 263.636719 399.384918 L 252.773499 403.97113 Z"/>
    <path id="path2" fill="#dc731a" fill-rule="evenodd" stroke="none" d="M 412.404663 357.649475 C 403.309326 358.273438 403.309326 358.273438 402.689697 353.75293 C 402.259705 350.615662 402.795349 346.213501 404.440308 339.366211 C 405.743896 333.939819 407.31073 326.125 407.922241 322 C 408.533691 317.875 409.138855 312.025024 409.267029 309 C 409.5 303.5 409.5 303.5 416.409546 311.75 C 420.209778 316.287476 423.878235 320 424.561707 320 C 425.245178 320 426.298401 318.582825 426.902161 316.850769 C 427.505981 315.118713 428 310.441101 428 306.456116 C 428 302.01947 427.228699 296.746887 426.010437 292.855347 C 424.916138 289.359924 422.595215 284.025024 420.852844 281 C 419.110474 277.974976 415.113403 272.980042 411.970398 269.900146 C 408.827393 266.82019 403.586426 262.67865 400.32373 260.696655 C 397.061035 258.714661 390.365967 255.757874 385.445801 254.125977 C 380.525635 252.49408 372.900024 250.560669 368.5 249.829468 C 364.099976 249.098267 354.200012 248.5 346.5 248.5 C 338.799988 248.5 321.25 249.092346 307.5 249.816284 C 293.75 250.540283 276.092529 251.393677 268.26123 251.712769 C 256.868713 252.176941 252.675903 251.960632 247.28656 250.630676 C 243.581818 249.716431 238.862732 247.851379 236.799622 246.486084 C 234.736542 245.120789 232.321838 242.894653 231.433594 241.539001 C 229.82431 239.082947 229.883118 239.004517 248.114716 219.287109 C 258.177612 208.404236 269.805908 196.124146 273.955444 191.998169 C 278.104919 187.872131 282.70282 183.877136 284.172974 183.120422 C 285.701782 182.333435 287.93689 182.018311 289.394714 182.384216 C 290.79657 182.736084 298.190735 189.013245 305.826294 196.333435 C 314.652771 204.795471 321.46875 210.470154 324.540649 211.914063 C 327.197998 213.163208 332.496582 214.83667 336.315308 215.632874 C 340.133972 216.429077 343.728821 216.923706 344.303833 216.732056 C 344.878906 216.540344 341.369446 211.909729 336.505066 206.441772 C 331.640686 200.973816 324.256287 193.008606 320.095215 188.741333 C 312.958679 181.422607 312.607971 180.855591 313.909851 178.741333 C 314.668945 177.508606 320.025696 170.200012 325.813782 162.5 C 331.601868 154.799988 339.508728 144.766846 343.384644 140.204041 C 347.260498 135.641296 351.998901 130.712708 353.914429 129.251709 C 355.829895 127.79071 358.614258 126.416687 360.101929 126.198364 C 362.458191 125.852539 364.395752 127.457092 375.138672 138.650696 C 381.921265 145.717834 408.514771 172.656311 434.235352 198.514038 C 481 245.528076 481 245.528076 480.991821 256.014038 C 480.987305 261.781311 480.522705 270.549988 479.959412 275.5 C 479.396118 280.450012 477.806702 290.125 476.427368 297 C 475.048096 303.875 472.101563 314.86499 469.879578 321.422241 C 467.657532 327.979431 463.811401 337.879456 461.332581 343.422241 C 458.85376 348.965027 456.527344 353.803833 456.162781 354.175171 C 455.798279 354.546509 447.849976 355.339722 438.5 355.937927 C 429.150024 356.536072 417.407104 357.306274 412.404663 357.649475 Z"/>
    <path id="path3" fill="#f2d298" fill-rule="evenodd" stroke="none" d="M 423 678 L 423 779 L 204.25 778.916687 C 18.922394 778.846069 -15.39624 778.616455 -20.365921 777.413574 C -23.592178 776.632629 -28.992188 774.546509 -32.365921 772.77771 C -35.73967 771.008911 -41.199997 766.836243 -44.5 763.505127 C -47.800003 760.174011 -51.76416 754.926025 -53.309235 751.842834 C -54.854309 748.759705 -56.761475 743.821289 -57.547363 740.868591 C -58.333252 737.915894 -58.981598 732.332031 -58.988129 728.460083 C -58.994659 724.588135 -58.310959 718.77478 -57.468811 715.541565 C -56.626648 712.308289 -54.522461 707.007813 -52.792816 703.762695 C -51.063171 700.517517 -47.246002 695.421692 -44.310211 692.438599 C -41.374405 689.455566 -36.281708 685.656616 -32.993103 683.996521 C -29.704483 682.336426 -24.441162 680.308105 -21.296799 679.489075 C -16.317749 678.1922 12.725983 678 203.710114 678 L 423 678 Z M 433.908386 779.115479 C 434.760925 742.988464 435.006531 720.237488 435.004211 705.25 L 435 678 L 476.25 678.015625 C 507.189209 678.027344 518.923706 678.366333 523.19574 679.371704 C 526.32843 680.109009 531.364868 681.922363 534.387939 683.401367 C 537.411011 684.880432 542.241455 688.207642 545.122314 690.795288 C 548.003174 693.382874 552.094727 698.181335 554.214661 701.458496 C 556.334595 704.735657 559.00354 710.493469 560.14563 714.253601 C 561.445801 718.534058 562.222229 723.860718 562.222229 728.5 C 562.222229 733.16626 561.444519 738.470093 560.121826 742.82489 C 558.966553 746.628235 556.184326 752.491089 553.939026 755.853455 C 551.693726 759.21582 547.976379 763.587524 545.678345 765.568359 C 543.380249 767.549194 539.664063 770.254578 537.420105 771.580322 C 535.176147 772.906006 530.676147 774.989502 527.420105 776.210388 C 521.694275 778.357239 520.062683 778.441345 477.704163 778.772766 L 433.908386 779.115479 Z M 524.104065 763 C 525.562134 763 527.294739 762.349731 527.954346 761.555054 C 528.613892 760.760315 529.00647 759.189087 528.826782 758.063477 C 528.647034 756.937805 524.971863 752.474731 520.659729 748.145508 C 512.819458 740.27417 512.819458 740.27417 515.05957 735.887085 C 516.437927 733.187622 517.482361 728.954834 517.774658 724.883789 C 518.10437 720.29071 517.742432 716.740723 516.591187 713.274475 C 515.679016 710.52832 513.335083 706.414917 511.382385 704.133667 C 509.429749 701.852417 505.957397 698.898804 503.666016 697.570068 C 501.374695 696.241394 497.025024 694.706177 494 694.158447 C 490.631531 693.548523 486.670959 693.5047 483.780579 694.045349 C 481.184875 694.530884 477.339661 695.806396 475.235596 696.879822 C 473.131592 697.953186 469.557617 700.841187 467.293396 703.297485 C 464.734314 706.073792 462.527466 709.823303 461.460754 713.207275 C 460.304443 716.875549 459.881592 720.746216 460.164368 725.075439 C 460.434204 729.207825 461.457886 733.240723 463.033569 736.378906 C 464.38092 739.062317 467.242249 742.763428 469.392151 744.603699 C 471.542053 746.443909 475.37085 748.748413 477.900513 749.724792 C 480.644592 750.783875 485.173706 751.5 489.128052 751.5 C 493.638489 751.5 497.360718 750.822021 500.778748 749.377991 C 505.801392 747.255981 505.801392 747.255981 513.627258 755.127991 C 519.474426 761.009705 522.123352 763 524.104065 763 Z M -11.76561 753.807922 C -7.619675 753.507751 -7.465698 753.368225 -5.631195 748.25 C -3.749481 743 -3.749481 743 5.150024 743 C 13.95929 743 14.059235 743.027893 15.008881 745.75 C 15.53653 747.262512 16.555176 749.625 17.272491 751 C 18.367096 753.098267 19.293701 753.5 23.03833 753.5 C 26.918793 753.5 27.491852 753.227417 27.437561 751.407776 C 27.403198 750.25708 23.82608 739.344604 19.488373 727.157776 C 11.601624 705 11.601624 705 5.45047 705 C -0.700684 705 -0.700684 705 -5.213516 717.25 C -7.695587 723.987488 -11.417953 734.31958 -13.485458 740.210144 C -15.552963 746.100769 -16.968643 751.639343 -16.631424 752.518127 C -16.17421 753.709595 -14.936874 754.037598 -11.76561 753.807922 Z M 54.895081 753.777283 C 68.5 753.5 68.5 753.5 68.810852 749.741943 C 69.011475 747.316284 68.656952 745.814331 67.810852 745.505615 C 67.089874 745.242554 63.799988 744.945923 60.5 744.846436 C 57.200012 744.746948 53.487488 744.507202 52.25 744.313721 C 50.005463 743.962769 50 743.914429 50 724.428711 C 50 704.895508 50 704.895508 44.75 705.197754 C 39.5 705.5 39.5 705.5 39.230896 728.374512 C 39.039337 744.6604 39.29715 751.653076 40.125977 752.651794 C 41.042572 753.756226 44.183563 753.995605 54.895081 753.777283 Z M 88.741974 753.810852 C 92.5 753.5 92.5 753.5 93.00708 741.5 C 93.28598 734.900024 93.454773 726.66333 93.382141 723.196411 C 93.287689 718.687439 93.693115 716.449707 94.806122 715.336731 C 95.915497 714.227356 97.59613 713.9198 100.661011 714.265259 C 103.140594 714.544739 105.636505 714.255066 106.558655 713.58075 C 107.627106 712.7995 108.048401 711.265381 107.828705 708.955872 C 107.5 705.5 107.5 705.5 88.75 705.227905 C 70 704.955872 70 704.955872 70 709.477905 C 70 713.46637 70.265503 714.013733 72.25 714.116272 C 73.487488 714.180237 76.524994 714.292725 79 714.366272 C 83.5 714.5 83.5 714.5 83.757416 733 C 83.899017 743.174988 84.23288 752.089844 84.49939 752.810852 C 84.811859 753.656189 86.31842 754.011292 88.741974 753.810852 Z M 124.463715 753.797058 C 128.5 753.5 128.5 753.5 128.767792 729.25 C 129.035553 705 129.035553 705 124.017792 705 C 119 705 119 705 119 728.833313 C 119 741.94165 119.321167 752.987854 119.713715 753.380371 C 120.106262 753.772949 122.243774 753.960449 124.463715 753.797058 Z M 144 704.845032 C 144 741.906799 144.299988 752.966675 144.666656 753.333313 C 145.033325 753.700012 146.968323 754 148.966675 754 C 150.964996 754 153.140015 753.460022 153.799988 752.799988 C 154.510925 752.08905 155 748.667969 155 744.405884 C 155 737.211792 155 737.211792 162.932495 736.851563 C 168.987457 736.576538 171.517242 736.004333 173.620697 734.433838 C 175.136353 733.302246 177.30423 731.133728 178.438202 729.614868 C 179.971252 727.561523 180.5 725.352234 180.5 721 C 180.5 716.647766 179.971252 714.438477 178.438202 712.385132 C 177.30423 710.866272 175.135559 708.695801 173.618927 707.561768 C 171.217133 705.765991 169.128906 705.457764 157.430695 705.172485 L 144 704.845032 Z M 202 745 C 202 705 202 705 197 705 C 192 705 192 705 192 728.833313 C 192 741.94165 192.312439 752.979126 192.694336 753.361023 C 193.076233 753.74292 199.263733 753.93042 206.444336 753.777649 C 219.5 753.5 219.5 753.5 219.807495 749.25 C 220.11499 745 220.11499 745 211.057495 745 L 202 745 Z M 236.234375 753.807922 C 240.380341 753.507751 240.534302 753.368225 242.368805 748.25 C 244.250519 743 244.250519 743 253 743 C 261.749451 743 261.749451 743 263.636719 748.25 C 265.523926 753.5 265.523926 753.5 270.511963 753.5 C 275.216919 753.5 275.489136 753.358154 275.308533 751 C 275.203247 749.625 271.588867 738.825012 267.27655 727 C 259.436035 705.5 259.436035 705.5 253.306885 705.20459 C 247.177673 704.90918 247.177673 704.90918 245.223083 710.20459 C 244.148041 713.117065 240.454895 723.474426 237.016113 733.220947 C 233.577301 742.967529 231.037781 751.656067 231.372711 752.528931 C 231.825287 753.708252 233.074005 754.036804 236.234375 753.807922 Z M 297.5 722.769653 C 310.508423 743.485657 315.398132 750.535828 316.758545 751.801819 C 318.673462 753.583862 320.165588 754.035522 323.366028 753.801819 C 327.5 753.5 327.5 753.5 327.767883 729.194458 C 328.035828 704.888977 328.035828 704.888977 323.267883 705.194458 C 318.5 705.5 318.5 705.5 318 720.449524 L 317.5 735.399109 L 307.658203 720.199524 C 297.816406 705 297.816406 705 292.408203 705 C 287 705 287 705 287 728.833313 C 287 741.94165 287.321167 752.987854 287.713745 753.380371 C 288.106262 753.772949 290.243774 753.960449 292.463745 753.797058 C 296.5 753.5 296.5 753.5 297 738.134827 L 297.5 722.769653 Z M 363.589294 754 C 366.980835 754 371.33136 753.341675 373.257141 752.536987 C 375.182922 751.732361 378.227173 749.838257 380.022156 748.327881 C 381.817139 746.817505 384.342102 743.313354 385.633118 740.540894 C 387.27887 737.006714 387.983398 733.68512 387.990234 729.428162 C 387.995605 726.088623 387.291809 721.277832 386.426208 718.737488 C 385.438049 715.837402 383.24176 712.634033 380.523865 710.128723 C 378.143127 707.934265 374.403076 705.601807 372.212646 704.945557 C 370.022217 704.289307 365.262573 703.941284 361.63562 704.172241 C 356.341858 704.509338 354.203491 705.180908 350.79425 707.577026 C 348.458435 709.218689 345.192749 712.752808 343.53717 715.430664 C 340.841125 719.791382 340.525635 721.147583 340.51355 728.42865 C 340.503845 734.244812 341.031738 737.738098 342.368835 740.70575 C 343.396729 742.987061 345.454651 746.019409 346.941956 747.444397 C 348.429321 748.869385 351.395935 750.927307 353.534546 752.017578 C 356.166443 753.359436 359.415466 754 363.589294 754 Z M 364.381958 744.929688 C 362.796875 744.891052 360.753784 744.553589 359.841736 744.179688 C 358.929688 743.805908 357.196106 742.601074 355.98938 741.50238 C 354.782593 740.403687 353.166321 738.288513 352.397644 736.802002 C 351.628906 735.315552 351 731.804626 351 729 C 351 726.195374 351.632263 722.685547 352.404968 721.200317 C 353.177734 719.715149 354.949707 717.435364 356.342712 716.134155 C 357.927246 714.654053 360.489868 713.604004 363.187744 713.329346 C 366.36499 713.00592 368.358826 713.429443 370.762939 714.938354 C 372.557495 716.064697 374.807495 718.625549 375.762939 720.629028 C 376.718323 722.632507 377.487671 726.348083 377.472656 728.885864 C 377.457581 731.423645 376.622192 735.18042 375.61615 737.234253 C 374.610168 739.288086 372.319397 741.875549 370.525513 742.984253 C 368.731628 744.092896 365.967041 744.968384 364.381958 744.929688 Z M 490.407837 741.547913 C 487.151428 741.873718 484.322327 741.509155 482 740.464294 C 480.075012 739.598267 477.315979 737.756531 475.868835 736.371582 C 474.421753 734.986694 472.450012 732.106812 471.487305 729.971802 C 470.266663 727.265015 469.882874 724.570557 470.219299 721.069641 C 470.518738 717.953491 471.70697 714.53009 473.35199 712.044312 C 474.809631 709.841675 477.783813 707.130615 479.961304 706.019775 C 482.224365 704.865234 485.878845 704 488.49231 704 C 491.006836 704 494.512268 704.608521 496.282104 705.352234 C 498.051941 706.095947 500.914063 708.15686 502.642395 709.932007 C 504.370667 711.707092 506.336609 715.130615 507.011169 717.539795 C 507.726379 720.094299 507.944641 723.499878 507.53479 725.710083 C 507.148315 727.794556 505.914429 730.992798 504.792847 732.817322 C 503.671326 734.641846 501.080139 737.242126 499.034668 738.595703 C 496.87616 740.02417 493.25647 741.262878 490.407837 741.547913 Z M 5.322784 716.523987 C 8.996368 727.355408 10.32254 731.512512 10.639862 732.75 C 11.191986 734.903198 10.950409 735 5.025085 735 C 1.092499 735 -1.008362 734.616943 -0.732788 733.950195 C -0.494171 733.372803 0.965973 729.215698 2.511932 724.712158 L 5.322784 716.523987 Z M 252.912048 735 C 247.47287 735 246.865936 734.803772 247.498779 733.25 C 247.890808 732.287476 248.906403 729.474976 249.755646 727 C 250.604889 724.525024 251.731689 721.375 252.259644 720 C 253.162354 717.648987 253.353638 717.857544 255.469543 723.5 C 256.707031 726.799988 258.016235 730.737488 258.378845 732.25 C 259.038086 735 259.038086 735 252.912048 735 Z M 160.045441 728 C 155 728 155 728 155 721 C 155 714 155 714 160.045441 714 C 164.069031 714 165.588043 714.497131 167.545441 716.454529 C 168.895447 717.804565 170 719.849976 170 721 C 170 722.150024 168.895447 724.195435 167.545441 725.545471 C 165.588043 727.502869 164.069031 728 160.045441 728 Z M 28.215057 300.718994 C 24.931549 285.298767 23.459137 275.574463 22.824585 269.16095 C 22.125336 262.093201 21.908905 250.606812 22.275177 240 C 22.607513 230.375 23.600647 218.231262 24.482117 213.013916 C 25.363617 207.79657 27.178986 199.211426 28.516296 193.93573 C 29.853607 188.660095 32.568604 179.653809 34.549591 173.921814 C 36.530609 168.189819 41.245514 157.200012 45.027191 149.5 C 48.808838 141.799988 54.783325 131.126343 58.303802 125.780701 C 61.824249 120.43512 68.168274 111.79895 72.401611 106.589233 C 76.634949 101.379517 84.853333 92.577393 90.664673 87.028931 C 96.476044 81.48053 105.901001 73.434326 111.60907 69.148499 C 117.317139 64.862671 126.808899 58.483948 132.701874 54.973633 C 138.594849 51.463257 148.160187 46.483521 153.958191 43.907532 C 159.756195 41.331543 168.572571 37.834106 173.550171 36.135498 C 178.527771 34.436829 187.821808 31.728333 194.203552 30.116638 C 200.585327 28.504883 211.812744 26.356812 219.153381 25.343079 C 228.047363 24.114868 238.505066 23.5 250.5 23.5 C 260.400024 23.5 273.224976 24.087219 279 24.804871 C 284.775024 25.522583 294.674988 27.252563 301 28.649353 C 307.325012 30.046143 319.474976 33.475098 328 36.269226 C 337.529297 39.392517 348.946167 44.09967 357.638184 48.488953 C 365.414185 52.415649 376.323975 58.684998 381.88208 62.420776 C 387.440247 66.156555 396.934143 73.463989 402.979675 78.659607 C 409.025208 83.855225 417.566711 92.115906 421.960876 97.016785 C 426.35498 101.917664 433.065002 110.126282 436.871887 115.25824 C 440.678833 120.390198 445.858704 127.99054 448.38269 132.147888 C 450.906677 136.305237 455.235413 144.253235 458.002075 149.81012 C 460.768799 155.367004 464.631653 164.09552 466.586182 169.206787 C 468.54071 174.318054 471.206238 182.169006 472.509521 186.653381 C 473.812805 191.137756 475.556396 198.112732 476.384155 202.153381 C 477.211914 206.194031 478.21106 211.967773 478.604431 214.983948 C 479.319763 220.467957 479.319763 220.467957 447.60498 188.288025 C 430.161865 170.58905 406.577393 146.671204 395.195129 135.137329 C 379.802124 119.539368 373.163452 113.504761 369.283264 111.583313 C 365.849121 109.882751 362.41687 109 359.239014 109 C 355.568665 109 353.115173 109.778992 349.003296 112.25 C 345.785522 114.183655 339.963562 119.550232 334.628906 125.5 C 329.69751 131 320.981812 141.349976 315.26062 148.5 C 309.53949 155.650024 303.652893 162.995178 302.17926 164.822571 C 299.5 168.145142 299.5 168.145142 295.782104 166.572571 C 293.737305 165.707642 289.46228 165.004211 286.282104 165.009399 C 281.751343 165.016724 279.413574 165.641968 275.479858 167.898315 C 272.181824 169.7901 265.492676 176.198608 255.979858 186.580261 C 248.01593 195.271606 238.276245 205.784058 234.33609 209.941345 C 230.395905 214.098572 226.833588 217.162659 226.419769 216.750366 C 226.005951 216.338074 225.612915 200.138062 225.546387 180.750366 C 225.443024 150.639465 225.161346 144.333618 223.614471 137.5 C 222.6185 133.099976 220.552765 126.799988 219.023987 123.5 C 216.782043 118.660645 216.134216 115.551758 215.674896 107.428345 C 215.301666 100.827515 214.375122 95.404907 212.986267 91.69281 C 211.82074 88.577698 209.099731 83.382202 206.939575 80.147339 C 204.779388 76.912476 200.963013 72.377075 198.458679 70.068665 C 195.954346 67.760254 193.142578 66.018494 192.210297 66.197998 C 191.278015 66.377563 189.96933 67.663391 189.302155 69.055481 C 188.332397 71.078735 188.385132 72.981995 189.564972 78.543213 C 190.37674 82.369446 191.666992 89.055664 192.43219 93.401428 C 193.197418 97.747253 193.510406 102.149292 193.127716 103.183777 C 192.586884 104.645752 191.548798 103.239136 188.465973 96.867188 C 186.15921 92.099182 182.539948 86.647034 179.814911 83.834839 C 176.676605 80.596191 174.305298 79 172.632324 79 C 171.004791 79 169.911438 79.703674 169.493652 81.02002 C 169.063599 82.374939 170.365631 85.991516 173.448059 92.004089 C 175.975616 96.934265 178.288177 102.212708 178.587097 103.734009 C 179.118774 106.43988 178.917297 106.574036 169.315308 109.908142 C 163.91687 111.782593 155 115.235107 149.5 117.580383 C 144 119.925659 134.549988 124.165588 128.5 127.00238 C 122.450012 129.839172 116.222321 133.361633 114.660736 134.830078 C 113.099121 136.298523 111.186615 138.715149 110.410736 140.200317 C 109.634827 141.685547 109.007416 144.610535 109.016449 146.700317 C 109.025513 148.790161 110.037994 152.266235 111.266449 154.424988 C 112.658875 156.871887 115.159729 159.225525 117.907288 160.674988 C 121.683197 162.666931 123.771149 163 132.482391 163 C 138.366272 163 147.450378 163.864319 154.043274 165.051514 C 160.309448 166.17981 165.645752 167.312439 165.901733 167.56842 C 166.157715 167.824402 164.437805 176.013672 162.079712 185.766907 C 159.721649 195.520081 156.487061 209.713562 154.891754 217.307861 C 153.296478 224.902161 151.255798 236.827209 150.356964 243.807861 C 149.15097 253.173706 148.89035 260.169067 149.362457 270.5 C 149.718262 278.28656 150.856201 288.272461 151.926422 293 C 152.984741 297.674988 154.730103 304.200012 155.805054 307.5 C 156.879974 310.799988 158.494629 315.1875 159.393158 317.25 C 160.614075 320.052551 160.707611 320.974365 159.763428 320.89856 C 159.068542 320.842712 155.078796 319.767517 150.897308 318.509216 C 146.71582 317.250854 138.538239 315.052734 132.724884 313.624451 C 126.91156 312.196167 116.382782 309.892029 109.327606 308.504028 C 102.27243 307.116089 90.200012 305.06073 82.5 303.936646 C 74.249329 302.732117 60.22818 301.651794 48.357544 301.305908 L 28.215057 300.718994 Z"/>
</svg>
