<?xml version="1.0" encoding="UTF-8"?>
<!-- Generated by Pixelmator Pro 3.7 -->
<svg width="602" height="449" viewBox="0 0 602 449" xmlns="http://www.w3.org/2000/svg">
    <path id="Shape" fill="#f59e0c" fill-rule="evenodd" stroke="none" d="M 21 449 L 20.958893 101.5 L 10.759171 90.08313 C 3.33223 81.769897 0.460464 77.818542 0.195404 75.548035 C -0.036682 73.560059 0.496231 71.622437 1.66568 70.202271 C 2.975861 68.611206 16.786957 63.152283 50 51.097839 C 75.575012 41.815552 116.299988 26.858704 140.5 17.860474 L 184.5 1.5 L 300 1.204468 L 415.5 0.908936 L 437.5 8.90509 C 449.599976 13.302979 475.360352 22.77948 494.745178 29.963989 C 514.130005 37.148499 545.401855 48.674927 564.238159 55.578308 C 583.074463 62.481628 599.276611 68.845337 600.242981 69.71991 C 601.222717 70.606567 602 72.727722 602 74.514771 C 602 77.165161 600.183716 79.769592 591.5 89.570984 L 581 101.422363 L 581 275.211182 L 581 449 L 301 449 L 21 449 Z M 235 436 C 235.031372 334.337524 235.316132 322.151306 236.495331 316.5 C 237.298676 312.650024 240.029755 305.298584 242.564392 300.163574 C 246.250244 292.696289 248.737915 289.262085 254.990417 283.009583 C 261.002014 276.997986 264.735992 274.244324 271.153992 271.089722 C 275.744293 268.833435 282.513672 266.256409 286.197083 265.363037 C 291.165497 264.15802 295.682587 263.870972 303.697083 264.251099 C 310.659729 264.58136 316.810669 265.50708 321 266.855286 C 324.575012 268.005737 330.372681 270.646484 333.883789 272.723511 C 337.394836 274.800598 342.848755 278.981689 346.003601 282.014893 C 349.158447 285.048096 353.583496 290.382446 355.836975 293.86908 C 358.090454 297.355652 360.895996 302.748962 362.071472 305.854187 C 363.246948 308.959351 364.820984 314.875 365.569458 319 C 366.606079 324.713562 366.938538 339.540833 366.965088 381.25 L 367 436 L 463.75 435.988983 C 516.962524 435.982941 562.1875 435.699066 564.25 435.358154 C 568 434.738312 568 434.738312 568 423.869171 C 568 413 568 413 559 413 L 550 413 L 550 401.5 L 550 390 L 559 390 L 568 390 L 568 378.5 L 568 367 L 559 367 L 550 367 L 550 355.5 L 550 344 L 559 344 L 568 344 L 568 332 L 568 320 L 559 320 L 550 320 L 550 308.5 L 550 297 L 559 297 L 568 297 L 568 285.5 L 568 274 L 559 274 L 550 274 L 550 262.5 L 550 251 L 559 251 C 568 251 568 251 568 246.5 C 568 242 568 242 301.5 242 C 35 242 35 242 35 247 C 35 252 35 252 43.5 252 C 52 252 52 252 52 263 C 52 274 52 274 43.5 274 C 35 274 35 274 35 286 C 35 298 35 298 43.5 298 C 52 298 52 298 52 309.5 C 52 321 52 321 43.5 321 C 35 321 35 321 35 332.5 C 35 344 35 344 43.5 344 C 52 344 52 344 52 355.5 C 52 367 52 367 43.5 367 C 35 367 35 367 35 378.5 C 35 390 35 390 43.5 390 C 52 390 52 390 52 401.5 C 52 413 52 413 43.613419 413 C 35.226837 413 35.226837 413 34.778488 423.75 C 34.531891 429.662506 34.507416 434.837494 34.724091 435.25 C 34.94075 435.662506 80.091461 436 135.059021 436 L 235 436 Z M 264 436 L 264 339 L 301 339 L 338 339 L 338 387.5 L 338 436 L 346.045105 436 L 354.09021 436 L 353.795105 377.75 C 353.5 319.5 353.5 319.5 350.885925 312.352722 C 349.448181 308.421753 346.323853 302.428345 343.942932 299.034119 C 341.561951 295.639893 337.338318 291.047119 334.556946 288.827942 C 331.775635 286.608826 327.370056 283.710999 324.766785 282.388245 C 322.163513 281.065552 317.456482 279.312073 314.306702 278.491638 C 311.156921 277.671265 305.168884 277 301 277 C 296.831116 277 290.774811 277.689026 287.541565 278.531189 C 284.308289 279.373352 279.018799 281.47168 275.787109 283.194153 C 272.55542 284.916626 267.978546 288.027222 265.616272 290.106567 C 263.253998 292.185913 259.639221 296.329407 257.583405 299.314331 C 255.527618 302.299316 252.642853 307.837158 251.172791 311.620728 C 248.5 318.5 248.5 318.5 248.205231 377.25 L 247.910492 436 L 255.955231 436 L 264 436 Z M 112.938293 396 C 113.460266 316.012207 113.712128 309.789917 115 308.964233 C 115.882843 308.398193 129.35733 308.023743 147.75 308.054138 L 179 308.105774 L 179 352.052856 L 179 396 L 145.969147 396 L 112.938293 396 Z M 423 396 L 423 308 L 456 308 L 489 308 L 489 352 L 489 396 L 456 396 L 423 396 Z M 134.5 384 C 141 384 141 384 141 378 C 141 372 141 372 134.5 372 C 128 372 128 372 128 378 C 128 384 128 384 134.5 384 Z M 157.75 383.795685 C 164.5 383.5 164.5 383.5 164.799896 377.75 C 165.099792 372 165.099792 372 158.049896 372 C 151 372 151 372 151 378.045685 C 151 384.09137 151 384.09137 157.75 383.795685 Z M 444.468628 384 C 451 384 451 384 451 378 C 451 372 451 372 444.25 372.000793 C 437.5 372.001617 437.5 372.001617 437.199951 376.649261 C 437.034973 379.205444 437.133362 381.90509 437.418579 382.648438 C 437.781006 383.592957 439.904236 384 444.468628 384 Z M 467.440979 384 C 470.983521 384 474.151001 383.564728 474.479797 383.032745 C 474.808533 382.500732 474.777161 379.800751 474.409973 377.032745 C 473.74231 372 473.74231 372 467.371155 372 C 461 372 461 372 461 378 C 461 384 461 384 467.440979 384 Z M 134.5 364 C 141 364 141 364 141 353.5 C 141 343 141 343 134.5 343 C 128 343 128 343 128 353.5 C 128 364 128 364 134.5 364 Z M 158 364 C 165 364 165 364 165 353.5 C 165 343 165 343 158 343 C 151 343 151 343 151 353.5 C 151 364 151 364 158 364 Z M 444.606995 364 C 451 364 451 364 451 353.5 C 451 343 451 343 444 343 C 437 343 437 343 437 351.918213 C 437 356.823242 437.273132 361.548218 437.606995 362.418213 C 438.072876 363.632355 439.69989 364 444.606995 364 Z M 467.5 364 C 474 364 474 364 474 353.5 C 474 343 474 343 467.5 343 C 461 343 461 343 461 353.5 C 461 364 461 364 467.5 364 Z M 132.25 335.986328 C 134.587494 335.978821 137.512512 335.701355 138.75 335.36969 C 140.76004 334.831055 141 334.139343 141 328.883362 C 141 323 141 323 134.5 323 C 128 323 128 323 128 329.5 C 128 336 128 336 132.25 335.986328 Z M 443.75 335.795715 C 450.5 335.5 450.5 335.5 450.797729 329.25 C 451.095459 323 451.095459 323 444.047729 323 C 437 323 437 323 437 329.545715 C 437 336.09137 437 336.09137 443.75 335.795715 Z M 467.5 336 C 474 336 474 336 474 329.5 C 474 323 474 323 467.5 323 C 461 323 461 323 461 329.5 C 461 336 461 336 467.5 336 Z M 158 335 C 165 335 165 335 165 329 C 165 323 165 323 158 323 C 151 323 151 323 151 329 C 151 335 151 335 158 335 Z M 301.033386 330 C 263.812317 330 263.812317 330 264.470215 324.75 C 264.832031 321.862488 266.449249 316.744812 268.063965 313.377441 C 269.743134 309.875671 272.958191 305.449707 275.574799 303.037842 C 278.091003 300.718445 282.703522 297.623657 285.82486 296.1604 C 290.724548 293.863525 292.800964 293.5 301.021057 293.5 C 309.741821 293.5 311.096924 293.773132 317.143616 296.749939 C 320.971863 298.634583 325.516724 301.921753 327.962158 304.574768 C 330.281555 307.091003 333.338684 311.682434 334.75592 314.778015 C 336.173096 317.873596 337.540039 322.56488 337.793518 325.203125 C 338.254456 330 338.254456 330 301.033386 330 Z M 115 230 C 115 151.966431 115.247833 144.515442 116.588257 139.931519 C 117.461792 136.944153 119.525726 132.374939 121.174774 129.777649 C 122.823822 127.180359 125.725708 123.692017 127.623444 122.025757 C 129.521149 120.359558 133.194733 117.933716 135.786926 116.635071 C 138.37912 115.336365 142.915161 113.704712 145.867065 113.009094 C 148.818939 112.313477 153.543945 111.986694 156.367065 112.282837 C 159.190186 112.578979 164.065735 113.785706 167.20163 114.964417 C 170.391998 116.163574 175.113312 119.094543 177.921051 121.618958 C 181.114441 124.490051 184.131622 128.552429 186.219421 132.79187 C 189.5 139.453369 189.5 139.453369 189.788513 184.726685 L 190.077057 230 L 201.990692 230 L 213.904327 230 L 214.202148 185.22644 C 214.5 140.452881 214.5 140.452881 217.749939 133.853882 C 219.633209 130.029846 222.923706 125.481506 225.574799 123.037842 C 228.091003 120.718445 232.526154 117.732849 235.430664 116.403137 C 238.335205 115.073364 243.321533 113.50293 246.511414 112.913269 C 250.547241 112.167175 254.085052 112.153564 258.143646 112.868469 C 261.351532 113.433533 265.99176 114.787476 268.455292 115.877197 C 270.918823 116.966919 275.14093 119.922424 277.837708 122.444946 C 280.872742 125.283875 283.838104 129.406738 285.620483 133.265686 C 288.5 139.5 288.5 139.5 288.797394 184.75 L 289.094788 230 L 301.00885 230 L 312.922974 230 L 313.211487 184.75 C 313.5 139.5 313.5 139.5 316.170166 133.803528 C 317.638794 130.67041 320.923462 126.023926 323.469482 123.477905 C 326.015503 120.931885 330.93335 117.522217 334.398071 115.900879 C 338.331909 114.060059 343.150757 112.723938 347.229919 112.343018 C 352.352661 111.864624 355.244507 112.193054 360.631165 113.865112 C 364.408997 115.037842 369.634949 117.575439 372.244385 119.504272 C 374.85376 121.433105 378.552063 125.14624 380.46283 127.755615 C 382.373596 130.365051 384.703857 134.525024 385.641235 137 C 387.127869 140.924988 387.398743 147.154114 387.761292 185.75 L 388.177002 230 L 400.049988 230 L 411.922974 230 L 412.211487 184.75 C 412.5 139.5 412.5 139.5 415.125366 134 C 416.569336 130.974976 419.400757 126.606384 421.417358 124.291992 C 423.501648 121.899963 427.763 118.767029 431.291992 117.032288 C 434.70636 115.353882 440.422119 113.46759 443.993591 112.840576 C 448.9776 111.965515 451.871033 111.986328 456.439697 112.929932 C 459.713501 113.60614 464.21637 115.070068 466.446045 116.183105 C 468.67572 117.296082 472.674622 120.297729 475.332458 122.853394 C 477.990295 125.408997 481.212524 129.543091 482.492981 132.040222 C 483.773438 134.537292 485.31134 139.232483 485.910522 142.473877 C 486.582458 146.108521 487 164.011292 487 189.183655 L 487 230 L 527.5 230 C 568 230 568 230 568 227 C 568 224 568 224 559 224 C 550 224 550 224 550 214.5 C 550 205 550 205 559 205 L 568 205 L 568 192.5 L 568 180 L 559 180 C 550 180 550 180 550 169 C 550 158 550 158 559 158 L 568 158 L 568 145.5 L 568 133 L 559 133 C 550 133 550 133 550 122.5 C 550 112 550 112 559 112 C 568 112 568 112 568 106 L 568 100 L 301 100 C 76.507782 100 34 100.216614 34 101.360413 C 34 102.108643 34.286163 104.808655 34.635925 107.360413 C 35.271851 112 35.271851 112 43.635925 112 C 52 112 52 112 52 122.5 C 52 133 52 133 43.5 133 L 35 133 L 35 146 L 35 159 L 43.5 159 C 52 159 52 159 52 170 C 52 181 52 181 43.5 181 L 35 181 L 35 193.5 L 35 206 L 43.5 206 C 52 206 52 206 52 215.5 C 52 225 52 225 43.5 225 C 35.100006 225 35 225.029419 35 227.5 C 35 230 35 230 75 230 L 115 230 Z M 148 230 L 148 165 L 138.5 165 L 129 165 L 129 197.5 L 129 230 L 138.5 230 L 148 230 Z M 176 230 L 176 165 L 167 165 L 158 165 L 158 197.5 L 158 230 L 167 230 L 176 230 Z M 247 230 L 247 165 L 237.5 165 L 228 165 L 228 197.5 L 228 230 L 237.5 230 L 247 230 Z M 275.872223 230 L 276.042999 165 L 266.521515 165 L 257 165 L 257 197.5 L 257 230 L 266.436127 230 L 275.872223 230 Z M 346 230 L 346 165 L 336.5 165 L 327 165 L 327 197.5 L 327 230 L 336.5 230 L 346 230 Z M 374 230 L 374 165 L 364.5 165 L 355 165 L 355 197.5 L 355 230 L 364.5 230 L 374 230 Z M 445 230 L 445 165 L 435.5 165 L 426 165 L 426 197.5 L 426 230 L 435.5 230 L 445 230 Z M 473 230 L 473 165 L 463.5 165 L 454 165 L 454 197.5 L 454 230 L 463.5 230 L 473 230 Z M 148 156 C 148 127.783203 148 127.783203 145.25 128.469543 C 143.737488 128.847046 141.149994 130.001953 139.5 131.036011 C 137.850006 132.070068 135.506958 134.397461 134.293213 136.208069 C 133.079498 138.018616 131.391998 141.469055 130.543213 143.875732 C 129.694458 146.282349 129 149.994873 129 152.125732 C 129 156 129 156 138.5 156 L 148 156 Z M 158 156 C 176 156 176 156 176 149.967896 C 176 146.650208 175.303528 142.26886 174.452271 140.231506 C 173.601013 138.194214 171.913513 135.456177 170.702271 134.147034 C 169.491028 132.837891 167.576477 131.150818 166.447723 130.397949 C 165.31897 129.645081 162.956482 128.741272 161.197723 128.389526 C 158 127.75 158 127.75 158 141.875 L 158 156 Z M 247 156 C 247 127.766846 247 127.766846 244.512299 128.242371 C 243.144043 128.503967 240.266754 129.881226 238.118317 131.302979 C 235.443939 133.072815 233.232513 135.848267 231.106018 140.10376 C 228.915222 144.487915 228 147.745728 228 151.159729 C 228 156 228 156 237.5 156 L 247 156 Z M 257 156 C 276.276184 156 276.276184 156 275.598145 149.381836 C 275.22522 145.741882 274.079285 141.129333 273.051636 139.131836 C 272.023987 137.134338 269.898071 134.279968 268.327423 132.788818 C 266.756744 131.297729 263.565521 129.405151 261.23584 128.583191 C 257 127.088745 257 127.088745 257 141.544373 L 257 156 Z M 346 156 C 346 127.779053 345.998047 127.767212 343.75 128.211121 C 342.512512 128.455505 340.060791 129.407471 338.301697 130.32666 C 336.542603 131.24585 333.917175 133.553101 332.467407 135.453857 C 331.017578 137.354614 329.194336 141.026611 328.41571 143.613831 C 327.637085 146.20105 327 150.046326 327 152.158936 C 327 156 327 156 336.5 156 L 346 156 Z M 355 156 C 374 156 374 156 374 151.149231 C 374 148.481323 373.481201 144.768799 372.847046 142.899231 C 372.212952 141.029663 370.803772 138.222473 369.715637 136.661072 C 368.627502 135.09967 365.928772 132.512146 363.718567 130.911072 C 361.508301 129.309998 358.642456 128 357.349976 128 C 355 128 355 128 355 142 L 355 156 Z M 445 156 C 445 127.779053 444.998047 127.767212 442.75 128.211121 C 441.512512 128.455505 439.060791 129.407471 437.301697 130.32666 C 435.542603 131.24585 432.902405 133.572449 431.43457 135.496887 C 429.966675 137.421387 428.163208 140.684326 427.426758 142.747986 C 426.690308 144.811584 426.068054 148.637512 426.043884 151.25 C 426 156 426 156 435.5 156 L 445 156 Z M 454 156 C 473 156 473 156 472.956116 150.75 C 472.931946 147.862488 472.309692 143.811584 471.573242 141.747986 C 470.836792 139.684326 469.08197 136.485168 467.673584 134.638672 C 466.265198 132.792236 463.625 130.593201 461.806458 129.751953 C 459.987915 128.910767 457.487488 127.917114 456.25 127.543823 C 454 126.865234 454 126.865234 454 141.432617 L 454 156 Z M 301.641235 89 C 574.866089 89 574.866089 89 578.574341 84.474609 C 580.613831 81.985657 582.106445 79.803711 581.891296 79.625916 C 581.676086 79.44812 579.924988 79.368347 578 79.448608 C 576.075012 79.528931 449.643799 79.685852 297.041779 79.797302 C 19.583588 80 19.583588 80 24 84.5 C 28.416412 89 28.416412 89 301.641235 89 Z M 58.996033 65.5 C 75.069885 64.5 75.069885 64.5 78.982605 59.531006 C 81.134613 56.798035 82.776459 54.443115 82.631165 54.297852 C 82.48587 54.152527 78.89682 55.369873 74.655487 57.003113 C 70.414154 58.636292 65.160065 60.991211 62.979706 62.236267 C 60.799347 63.481323 59.011047 64.724976 59.005707 65 L 58.996033 65.5 Z M 96.523987 65.799255 C 103.360504 65.5 103.360504 65.5 111.235657 53.138733 C 115.566986 46.340027 118.973389 40.663208 118.80542 40.52356 C 118.637421 40.383911 115.721161 41.446472 112.324799 42.884827 C 107.366425 44.98468 105.084991 46.780823 100.746979 52 C 97.775513 55.575012 94.071564 60.209656 92.51593 62.299255 C 89.6875 66.098511 89.6875 66.098511 96.523987 65.799255 Z M 126.267303 66 C 133.534637 66 133.534637 66 142.13205 47.75 C 146.860626 37.712524 150.610626 29.357788 150.465424 29.184021 C 150.32019 29.010254 147.587128 29.910217 144.391907 31.184021 C 138.582458 33.5 138.582458 33.5 128.791229 49.376404 C 123.406067 58.108459 119 65.420959 119 65.626404 C 119 65.831909 122.270294 66 126.267303 66 Z M 155.100037 65.796326 C 162.449646 65.5 162.449646 65.5 166.123657 56 C 168.144379 50.775024 172.272766 40.200012 175.297882 32.5 C 178.322968 24.799988 180.711212 18.405212 180.605042 18.289368 C 180.498901 18.173523 177.773254 19.050781 174.548004 20.238892 C 168.68399 22.399048 168.68399 22.399048 158.736023 42.949524 C 153.264648 54.252258 148.554626 64.083374 148.269257 64.796326 C 147.866455 65.802795 149.393829 66.026367 155.100037 65.796326 Z M 183.414459 66 C 190.374756 66 191.126831 65.802917 192.001343 63.75 C 192.528503 62.512512 195.906158 51.825012 199.507263 40 C 203.108368 28.174988 206.316193 17.487488 206.635773 16.25 C 207.186005 14.119263 206.92569 14 201.725342 14 C 196.233887 14 196.233887 14 191.476807 26.25 C 188.860443 32.987488 184.483154 44.125 181.749512 51 C 179.0159 57.875 176.555817 64.0625 176.282654 64.75 C 175.911499 65.684143 177.713501 66 183.414459 66 Z M 213.028778 66 C 220.430725 66 220.997681 65.849365 221.496246 63.75 C 221.790131 62.512512 224.254181 51.98114 226.971893 40.346985 C 229.689636 28.71283 232.206512 18.02533 232.565002 16.596985 C 233.212799 14.016052 233.179565 14 227.186066 14 C 221.155304 14 221.155304 14 217.967163 24.25 C 216.213684 29.887512 213.228455 39.554871 211.333344 45.733093 C 209.438232 51.911316 207.25946 58.99884 206.491669 61.483093 C 205.095673 66 205.095673 66 213.028778 66 Z M 257.652435 14 C 246.328827 14 246.328827 14 240.991302 37.25 C 238.055664 50.037476 235.455627 61.737488 235.213409 63.25 C 234.77301 66 234.77301 66 242.367462 66 C 249.428223 66 249.99707 65.841919 250.462311 63.75 C 250.737549 62.512512 252.467926 50.8125 254.307587 37.75 L 257.652435 14 Z M 271.365723 66 C 278.440857 66 278.993317 65.845642 279.419952 63.75 C 279.671875 62.512512 280.12674 56.325012 280.430786 50 C 280.734802 43.674988 281.279785 32.987488 281.641815 26.25 C 282.300079 14 282.300079 14 276.740387 14 C 271.180695 14 271.180695 14 270.080719 20.75 C 269.475739 24.462524 268.118408 33.575012 267.064453 41 C 266.010498 48.424988 264.837982 57.087524 264.458862 60.25 C 263.769562 66 263.769562 66 271.365723 66 Z M 308.873108 66 C 308.101013 29.1875 307.670959 17.487488 307.419373 16.25 C 307.00769 14.225342 306.376221 14 301.114624 14 C 295.267365 14 295.267365 14 294.633636 30.75 C 294.285095 39.962524 293.732941 51.662476 293.406616 56.75 C 292.813354 66 292.813354 66 300.843231 66 L 308.873108 66 Z M 322.24408 66 C 338.023621 66 338.023621 66 337.480835 62.25 C 337.182312 60.1875 336.050415 49.5 334.965576 38.5 C 333.880737 27.5 332.761108 17.487488 332.477539 16.25 C 332.016602 14.238586 331.354187 13.999878 326.230957 13.998657 C 320.5 13.997253 320.5 13.997253 320.729431 19.248657 C 320.855652 22.136902 321.248108 33.837524 321.601501 45.25 L 322.24408 66 Z M 359.159851 66 C 367.175781 66 367.175781 66 366.479492 61.75 C 366.096497 59.412476 364.038879 48.724976 361.906982 38 C 359.775085 27.275024 357.790283 17.487488 357.496338 16.25 C 357.020569 14.247009 356.344971 14 351.342834 14 C 345.723816 14 345.723816 14 346.381287 20.497986 C 346.742859 24.071899 347.689575 33.409424 348.485046 41.247986 C 349.280518 49.086609 350.204163 57.862488 350.537598 60.75 C 351.143921 66 351.143921 66 359.159851 66 Z M 396.833496 66 C 392.301819 49.337524 389.033081 37.75 386.645874 29.5 C 382.305603 14.5 382.305603 14.5 376.290466 14.205872 C 370.275391 13.911743 370.275391 13.911743 372.581848 24.205872 C 373.850464 29.867615 376.060059 41.025024 377.492188 49 C 378.924255 56.974976 380.285278 64.0625 380.516602 64.75 C 380.805969 65.609863 383.417847 66 388.885376 66 L 396.833496 66 Z M 418.577026 66 C 426.007751 66 426.200684 65.938416 425.62738 63.75 C 425.303162 62.512512 422.580872 54.852783 419.577881 46.728333 C 416.574829 38.603943 412.628784 27.919128 410.808899 22.984253 C 407.5 14.01178 407.5 14.01178 401.641602 14.005859 C 396.004272 14.000244 395.805237 14.087952 396.368164 16.33075 C 396.68988 17.612671 399.907532 28.750183 403.518372 41.08075 C 407.129272 53.411316 410.275696 64.0625 410.510437 64.75 C 410.801941 65.603699 413.359497 66 418.577026 66 Z M 446.575623 65 C 452.293518 65 454.0849 64.68573 453.7005 63.75 C 453.418091 63.0625 450.24823 56.094116 446.656372 48.264709 C 443.064514 40.435242 438.634949 31.260681 436.812866 27.876709 C 433.87146 22.41394 432.945984 21.518005 428.559143 19.88623 C 425.841675 18.875427 423.516174 18.150452 423.391418 18.275269 C 423.266663 18.400024 426.509888 28.401611 430.598572 40.501038 C 434.687317 52.600464 438.236145 63.0625 438.484924 63.75 C 438.79303 64.60144 441.372803 65 446.575623 65 Z M 475.49939 65 C 483.127991 65 483.127991 65 480.990967 61.25 C 479.815613 59.1875 475.399353 52.099976 471.177002 45.5 C 464.35022 34.829041 462.965027 33.244507 458.669922 31.193359 C 456.013367 29.924683 453.443359 29.024719 452.958801 29.193359 C 452.474243 29.362 453.862122 33.658325 456.042969 38.740662 C 458.223816 43.823059 461.777222 51.810547 463.939453 56.490662 C 467.870789 65 467.870789 65 475.49939 65 Z M 505.720764 65 C 513.002502 65 513.19989 64.936829 511.871948 63.030823 C 511.117371 61.947815 507.080078 57.335266 502.900208 52.780823 C 496.324829 45.616272 494.45697 44.197021 489.044128 42.25238 C 484.278625 40.540344 482.917297 40.342041 483.330994 41.420105 C 483.6297 42.198547 487.096863 47.822449 491.035828 53.917725 C 498.197571 65 498.197571 65 505.720764 65 Z M 536.5 64.98822 C 544.5 64.981262 544.5 64.981262 539.309753 62.004517 C 536.455139 60.36731 531.09845 57.890686 527.406128 56.500854 C 523.713745 55.111084 520.5578 54.108826 520.393005 54.273682 C 520.228149 54.438538 521.984741 56.918335 524.296631 59.784302 C 528.5 64.995239 528.5 64.995239 536.5 64.98822 Z"/>
</svg>
